Coordinates
version=1
nRows=34
nColumns=38
inDegrees=no

Units are S.I. units (second, meters, Newtons, ...)
If the header above contains a line with 'inDegrees', this indicates whether rotational values are in degrees (yes) or radians (no).

endheader
time	pelvis_tilt	pelvis_list	pelvis_rotation	pelvis_tx	pelvis_ty	pelvis_tz	hip_flexion_r	hip_adduction_r	hip_rotation_r	knee_angle_r	ankle_angle_r	subtalar_angle_r	mtp_angle_r	hip_flexion_l	hip_adduction_l	hip_rotation_l	knee_angle_l	ankle_angle_l	subtalar_angle_l	mtp_angle_l	lumbar_extension	lumbar_bending	lumbar_rotation	arm_flex_r	arm_add_r	arm_rot_r	elbow_flex_r	pro_sup_r	wrist_flex_r	wrist_dev_r	arm_flex_l	arm_add_l	arm_rot_l	elbow_flex_l	pro_sup_l	wrist_flex_l	wrist_dev_l
0.6	-3.13463	1.2866	1.58863	0.4371	1.06659	1.03511	0.0873373	0.0339893	-0.123696	0.232704	-0.149293	0	0	0.568969	-0.0504167	-0.201707	0	-0.342224	0	0	0.13133	0.0221604	0.155976	-0.350563	-0.346681	-0.17039	0.912222	1.49134	0	0	-0.181652	-0.132636	-0.487103	0.639727	1.14484	0	0
0.61	-3.11637	1.28399	1.56554	0.437929	1.05448	1.03211	0.0787017	0.0384116	-0.122936	0.236655	-0.139488	0	0	0.570337	-0.0548215	-0.201104	0	-0.304299	0	0	0.133502	0.0282485	0.160523	-0.358103	-0.35387	-0.171397	0.935749	1.46729	0	0	-0.187601	-0.129581	-0.485524	0.655294	1.13816	0	0
0.62	-3.10495	1.28226	1.54951	0.438809	1.04213	1.02927	0.0692639	0.0404275	-0.122219	0.240979	-0.13698	0	0	0.570775	-0.0572248	-0.20403	0	-0.288693	0	0	0.136594	0.0318162	0.162869	-0.361149	-0.357563	-0.174124	0.950794	1.46091	0	0	-0.193078	-0.127385	-0.487003	0.666885	1.13838	0	0
0.63	-3.09709	1.28136	1.53787	0.439791	1.02958	1.02657	0.0594782	0.0409998	-0.121807	0.246755	-0.135169	0	0	0.570492	-0.0576899	-0.207226	0	-0.275348	0	0	0.139367	0.0337391	0.164648	-0.363384	-0.360605	-0.176045	0.962903	1.45395	0	0	-0.197513	-0.125445	-0.488527	0.676596	1.13836	0	0
0.64	-3.09261	1.28104	1.53083	0.440936	1.01685	1.02405	0.0496873	0.0401651	-0.121592	0.25376	-0.134359	0	0	0.570002	-0.0560852	-0.209403	0	-0.265187	0	0	0.14182	0.0345729	0.165229	-0.364644	-0.36355	-0.176626	0.972061	1.44683	0	0	-0.200573	-0.123321	-0.490382	0.683274	1.13758	0	0
0.65	-3.09175	1.28091	1.52839	0.442232	1.00391	1.02176	0.039954	0.0379408	-0.120307	0.260651	-0.134402	0	0	0.570199	-0.051888	-0.211278	0	-0.259418	0	0	0.144576	0.034301	0.165028	-0.365458	-0.366495	-0.175559	0.978347	1.43924	0	0	-0.202859	-0.121211	-0.492354	0.687339	1.13666	0	0
0.66	-3.09607	1.28263	1.53235	0.443618	0.990754	1.01979	0.0301847	0.0334237	-0.123167	0.272314	-0.135414	0	0	0.569532	-0.0452938	-0.212709	0	-0.250849	0	0	0.14303	0.0335861	0.170266	-0.371789	-0.34905	-0.216357	0.98706	1.49368	0	0	-0.200649	-0.124788	-0.472482	0.686142	1.11871	0	0
0.67	-3.10085	1.28302	1.53744	0.444995	0.977391	1.01792	0.0214681	0.0290161	-0.121683	0.282074	-0.136706	0	0	0.571057	-0.0386871	-0.211683	0	-0.252492	0	0	0.14594	0.0312003	0.16634	-0.370747	-0.360089	-0.19604	0.989241	1.45335	0	0	-0.203094	-0.117677	-0.49171	0.689566	1.1313	0	0
0.68	-3.10805	1.28477	1.54587	0.446355	0.963731	1.0163	0.0126318	0.0235234	-0.12332	0.295347	-0.139812	0	0	0.571388	-0.0313951	-0.208596	0	-0.252794	0	0	0.14344	0.0281219	0.164323	-0.37209	-0.356456	-0.204319	0.993739	1.45696	0	0	-0.204815	-0.116835	-0.491798	0.69248	1.12858	0	0
0.69	-3.11618	1.28716	1.5555	0.447691	0.949702	1.01483	0.00390925	0.0175166	-0.126052	0.310543	-0.145025	0	0	0.570254	-0.0241644	-0.202988	0	-0.254799	0	0	0.140752	0.0240099	0.16193	-0.373345	-0.351469	-0.212741	0.996114	1.45936	0	0	-0.208338	-0.117116	-0.491333	0.696935	1.12654	0	0
0.7	-3.12501	1.28976	1.56528	0.448992	0.935252	1.01342	-0.00400008	0.010943	-0.129521	0.327959	-0.152318	0	0	0.567135	-0.0173973	-0.1949	0	-0.256919	0	0	0.138802	0.0188655	0.160953	-0.375121	-0.34534	-0.220773	0.995299	1.46073	0	0	-0.213197	-0.117844	-0.490817	0.702608	1.12456	0	0
0.71	-3.13625	1.29262	1.5763	0.450264	0.920372	1.01204	-0.00977247	0.00272804	-0.135826	0.351415	-0.166274	0	0	0.561117	-0.0101793	-0.184196	0.000412142	-0.259761	0	0	0.136938	0.012455	0.161694	-0.376864	-0.33712	-0.230371	0.991201	1.46423	0	0	-0.220199	-0.118976	-0.489141	0.710871	1.12065	0	0
0.72	3.13471	1.2938	1.58559	0.451351	0.905099	1.01057	-0.0117429	-0.00632086	-0.13913	0.378134	-0.191568	0	0	0.55872	-0.00440174	-0.18547	0.0250668	-0.268164	0	0	0.139154	0.00528968	0.162506	-0.376685	-0.336456	-0.221695	0.981798	1.445	0	0	-0.23295	-0.12236	-0.483276	0.722284	1.11128	0	0
0.73	3.12077	1.29179	1.59393	0.452248	0.889748	1.00906	-0.00756221	-0.0161355	-0.134027	0.409166	-0.204888	0	0	0.559684	0.00132979	-0.188203	0.0434046	-0.28334	0	0	0.145932	-0.000140531	0.168529	-0.379597	-0.327405	-0.230433	0.97188	1.4575	0	0	-0.240909	-0.124983	-0.48049	0.724219	1.11182	0	0
0.74	3.10155	1.28541	1.60674	0.45299	0.874623	1.00764	0.00581086	-0.0282224	-0.124169	0.448096	-0.225703	0	0	0.56782	0.00594993	-0.197396	0.0658121	-0.300612	0	0	0.158488	-0.00798181	0.174442	-0.379316	-0.318339	-0.234285	0.955051	1.46722	0	0	-0.248965	-0.129456	-0.477773	0.723232	1.11381	0	0
0.75	3.07727	1.27579	1.62501	0.453708	0.859958	1.00645	0.0273075	-0.0427194	-0.110003	0.494574	-0.251432	0	0	0.57952	0.00919223	-0.2093	0.0924466	-0.30511	0	0	0.174828	-0.018161	0.179758	-0.37653	-0.309874	-0.233163	0.932822	1.473	0	0	-0.255211	-0.13486	-0.476168	0.718566	1.11575	0	0
0.76	3.04815	1.26507	1.64913	0.454467	0.845803	1.00558	0.0541616	-0.0594114	-0.0927463	0.546627	-0.280897	0	0	0.590945	0.0128072	-0.221195	0.121434	-0.296673	0	0	0.191498	-0.0305632	0.184191	-0.371961	-0.301522	-0.229622	0.907788	1.47647	0	0	-0.259562	-0.140537	-0.474937	0.712441	1.11638	0	0
0.77	3.01581	1.25474	1.67825	0.455296	0.832125	1.00509	0.0836403	-0.0770238	-0.0747725	0.600968	-0.316781	0	0	0.603449	0.0171629	-0.236154	0.158547	-0.279261	0	0	0.206059	-0.0445732	0.186806	-0.366165	-0.29276	-0.226191	0.88254	1.4775	0	0	-0.262538	-0.14605	-0.473926	0.706628	1.11636	0	0
0.78	2.98141	1.24658	1.71221	0.45625	0.818976	1.00507	0.11321	-0.0941053	-0.0582444	0.656181	-0.350522	0	0	0.613431	0.023877	-0.246198	0.197246	-0.264096	0	0	0.215024	-0.0599184	0.187406	-0.359969	-0.283776	-0.224067	0.859435	1.47622	0	0	-0.262191	-0.150633	-0.474265	0.700899	1.1152	0	0
0.79	2.94782	1.23961	1.74719	0.457282	0.806243	1.00532	0.143951	-0.10957	-0.0424845	0.712356	-0.387222	0	0	0.621785	0.0316576	-0.255265	0.236051	-0.249621	0	0	0.220693	-0.075862	0.187017	-0.354029	-0.274836	-0.222162	0.837745	1.47465	0	0	-0.259715	-0.154382	-0.475654	0.695954	1.11123	0	0
0.8	2.91829	1.23524	1.77857	0.458344	0.793789	1.00575	0.174214	-0.122312	-0.0275387	0.768572	-0.437516	0	0	0.626108	0.0393754	-0.263813	0.270852	-0.232739	0	0	0.222942	-0.0911841	0.184242	-0.34739	-0.278714	-0.190281	0.817518	1.42881	0	0	-0.258672	-0.156943	-0.478511	0.694847	1.1023	0	0
0.81	2.89278	1.23674	1.8052	0.459409	0.781469	1.00656	0.199704	-0.13188	-0.0146874	0.82295	-0.494835	0	0	0.623666	0.0448113	-0.275355	0.302778	-0.21609	0	0	0.215757	-0.101309	0.189489	-0.347322	-0.262684	-0.214036	0.804861	1.46432	0	0	-0.245969	-0.154205	-0.489032	0.686743	1.11015	0	0
0.82	2.87294	1.24232	1.82432	0.460406	0.769192	1.00754	0.222353	-0.138009	-0.00321931	0.875738	-0.538174	0	0	0.615662	0.0461929	-0.292467	0.330553	-0.20187	0	0	0.204891	-0.107093	0.194942	-0.348818	-0.260417	-0.209325	0.796618	1.46059	0	0	-0.235838	-0.15207	-0.492219	0.681822	1.11193	0	0
0.83	2.86006	1.25016	1.83523	0.461332	0.756942	1.00864	0.243713	-0.141068	0.00651025	0.927607	-0.552889	0	0	0.602552	0.0447742	-0.310021	0.350526	-0.191869	0	0	0.193174	-0.107768	0.200004	-0.351464	-0.261023	-0.201258	0.791432	1.4595	0	0	-0.22702	-0.150096	-0.491413	0.676214	1.11462	0	0
0.84	2.85422	1.25854	1.83761	0.462083	0.744846	1.00979	0.265782	-0.141189	0.0158969	0.97985	-0.540909	0	0	0.584181	0.0441288	-0.316946	0.35672	-0.179402	0	0	0.177745	-0.107445	0.197786	-0.346377	-0.265411	-0.181276	0.784536	1.45914	0	0	-0.224659	-0.147512	-0.494202	0.678303	1.11578	0	0
0.85	2.85599	1.26715	1.83055	0.462667	0.732741	1.01102	0.288314	-0.138406	0.0246265	1.03031	-0.507567	0	0	0.56442	0.0408723	-0.325605	0.360348	-0.164835	0	0	0.164746	-0.103763	0.196792	-0.341619	-0.272584	-0.154752	0.777518	1.4575	0	0	-0.223114	-0.144258	-0.497493	0.679267	1.11624	0	0
0.86	2.86275	1.27488	1.81722	0.463124	0.720626	1.01228	0.312317	-0.13477	0.0315731	1.07893	-0.470794	0	0	0.544227	0.0364753	-0.333571	0.361401	-0.154384	0	0	0.154298	-0.0977661	0.202822	-0.341847	-0.268309	-0.158809	0.771628	1.49987	0	0	-0.220126	-0.145821	-0.482637	0.677302	1.10542	0	0
0.87	2.87255	1.281	1.80124	0.463639	0.708494	1.01363	0.337815	-0.131462	0.0359134	1.12633	-0.411045	0	0	0.524494	0.0324484	-0.34043	0.359794	-0.140752	0	0	0.150348	-0.0934522	0.197321	-0.331524	-0.294218	-0.0772735	0.759007	1.43277	0	0	-0.226405	-0.13783	-0.503713	0.683775	1.11668	0	0
0.88	2.88335	1.28562	1.78589	0.464233	0.696419	1.01523	0.363992	-0.128849	0.0378211	1.16934	-0.353015	0	0	0.505573	0.0294063	-0.346668	0.356043	-0.131717	0	0	0.146264	-0.086415	0.199187	-0.331897	-0.282662	-0.0980476	0.750557	1.5155	0	0	-0.22095	-0.129918	-0.522293	0.67593	1.1372	0	0
0.89	2.89456	1.28946	1.77225	0.464977	0.684428	1.01711	0.389815	-0.126948	0.0374645	1.20604	-0.307029	0	0	0.487733	0.0271748	-0.351535	0.352445	-0.126886	0	0	0.14463	-0.0804751	0.196382	-0.329266	-0.287162	-0.074749	0.741509	1.52646	0	0	-0.220543	-0.127488	-0.527022	0.66915	1.13834	0	0
0.9	2.9064	1.2929	1.76059	0.465898	0.672503	1.01912	0.414724	-0.125649	0.0346335	1.23637	-0.263739	0	0	0.470961	0.0254683	-0.353219	0.349423	-0.123402	0	0	0.14425	-0.0749627	0.191366	-0.327326	-0.291254	-0.0524489	0.73287	1.53235	0	0	-0.220257	-0.12582	-0.531862	0.661222	1.13632	0	0
0.91	2.92158	1.29573	1.74834	0.466971	0.660647	1.02112	0.438978	-0.123986	0.0296587	1.26028	-0.226238	0	0	0.455504	0.0234199	-0.34845	0.346388	-0.121094	0	0	0.144901	-0.0688878	0.18466	-0.327648	-0.294246	-0.0350413	0.726602	1.53213	0	0	-0.220011	-0.125066	-0.535154	0.652704	1.13374	0	0
0.92	2.93929	1.29919	1.7354	0.468064	0.648787	1.0232	0.461338	-0.121714	0.0230746	1.27748	-0.211037	0	0	0.43951	0.0209855	-0.342821	0.343019	-0.120646	0	0	0.143313	-0.0616605	0.18063	-0.333809	-0.285989	-0.0530067	0.723962	1.56496	0	0	-0.217694	-0.127994	-0.525097	0.642553	1.12519	0	0
0.93	2.95929	1.30187	1.72083	0.469098	0.636964	1.02519	0.483613	-0.118695	0.016162	1.28976	-0.183292	0	0	0.424342	0.0183376	-0.336473	0.339617	-0.119702	0	0	0.144094	-0.0546161	0.172876	-0.337774	-0.283739	-0.053235	0.72044	1.5708	0	0	-0.217663	-0.127748	-0.528422	0.634738	1.12688	0	0
